<?xml version="1.0" encoding="UTF-8"?>
<svg id="Witchcraft-Icons" xmlns="http://www.w3.org/2000/svg" viewBox="0 0 64 64">
  <defs>
    <style>
      .cls-1 {
        fill: #f3e9ff;
      }

      .cls-2 {
        fill: none;
        stroke: #654a99;
        stroke-linecap: round;
        stroke-linejoin: round;
        stroke-width: 2px;
      }
    </style>
  </defs>
  <circle class="cls-1" cx="43.09" cy="33.68" r="13.5"/>
  <rect class="cls-2" x="13.39" y="6.85" width="37.22" height="50.3"/>
  <rect class="cls-2" x="16.34" y="9.8" width="31.32" height="44.4" rx="1.58" ry="1.58"/>
  <polygon class="cls-2" points="23.9 9.8 40.09 9.8 47.66 17.36 47.66 46.64 40.09 54.2 23.9 54.2 16.34 46.64 16.34 17.36 23.9 9.8"/>
  <g>
    <circle class="cls-2" cx="32" cy="33.39" r="2.96"/>
    <circle class="cls-2" cx="32" cy="33.39" r="6.25"/>
    <g>
      <path class="cls-2" d="M21.1,33.39s4.67,6.23,10.9,6.23,10.9-6.23,10.9-6.23"/>
      <path class="cls-2" d="M21.1,33.39s4.67-6.23,10.9-6.23,10.9,6.23,10.9,6.23"/>
    </g>
  </g>
  <path class="cls-2" d="M31.07,44.48h1.86"/>
  <path class="cls-2" d="M26.65,44.48h10.7"/>
  <path class="cls-2" d="M28.61,48.21h6.77"/>
  <path class="cls-2" d="M29.1,48.21h5.79"/>
  <g>
    <path class="cls-2" d="M27.46,18.59c2.49,0,4.52-2,4.54-4.49,0,2.5,2.02,4.54,4.52,4.54,0,0,0,0,.01,0"/>
    <path class="cls-2" d="M27.46,18.59c2.5,0,4.54,2.02,4.54,4.52,0,0,0,0,0,.01,0-2.5,2.03-4.53,4.53-4.53h0"/>
  </g>
</svg>