<?xml version="1.0" encoding="UTF-8"?>
<svg id="Witchcraft-Icons" xmlns="http://www.w3.org/2000/svg" viewBox="0 0 64 64">
  <defs>
    <style>
      .cls-1 {
        fill: #f3e9ff;
      }

      .cls-2 {
        fill: none;
        stroke: #654a99;
        stroke-linecap: round;
        stroke-linejoin: round;
        stroke-width: 2px;
      }
    </style>
  </defs>
  <circle class="cls-1" cx="37.18" cy="18.94" r="13.49"/>
  <path class="cls-2" d="M12.06,37.75c-.62,2.74-.13,5.62,1.35,8,4.14,6.11,15.12,5.42,24.51-1.55,5.85-4.34,9.69-10.09,10.79-15.29m-4.82-11.44c-5.24-2.47-13.6-.87-20.98,4.62-1.45,1.09-2.81,2.29-4.07,3.6m4.16,19.81c-1.13,.82-2.71,.56-3.53-.57-.03-.04-.06-.09-.09-.13-.65-.96-.64-2.22,.02-3.17,.16-.23,.36-.44,.58-.61,1.12-.83,2.7-.59,3.53,.52,.03,.04,.06,.09,.09,.13,.47,.71,.59,1.59,.34,2.4-.15,.56-.47,1.07-.93,1.43Z"/>
  <path class="cls-2" d="M18.26,38.76c-.5-3.97,2.28-9.21,7.28-12.89,6.17-4.58,13.43-5.04,16.1-1.02s-.07,10.99-6.25,15.57c-2.48,1.91-5.39,3.16-8.47,3.65"/>
  <ellipse class="cls-2" cx="30.43" cy="33.15" rx="5.26" ry="3.32" transform="translate(-13.99 25.91) rotate(-38.19)"/>
  <path class="cls-2" d="M16.17,22.02c1.57-1.56,3.24-3,5.02-4.31,12.9-9.57,27.96-10.52,33.65-2.12,4.19,6.18,2.12,15.7-4.4,24.1"/>
  <path class="cls-2" d="M41.8,48.11c-12.9,9.57-27.96,10.52-33.65,2.12-2.91-4.3-2.81-10.22-.26-16.25"/>
  <path class="cls-2" d="M14.3,25.03c.06,.07,.11,.16,.17,.24,1.2,1.78,.82,4.19-.87,5.51-.85,.65-1.95,.87-2.99,.62-.92-.23-1.72-.79-2.24-1.58-1.21-1.78-.83-4.19,.86-5.51,1.6-1.19,3.86-.87,5.07,.72Z"/>
  <path class="cls-2" d="M50.13,20.86c.84,1.22,.58,2.88-.6,3.78-.28,.21-.6,.36-.95,.44-1.02,.22-2.08-.22-2.65-1.09-.74-1.09-.63-2.54,.27-3.5,.11-.1,.21-.2,.33-.29,1.13-.82,2.7-.57,3.52,.55,.03,.04,.05,.07,.08,.11Z"/>
  <path class="cls-2" d="M48.45,42.98c.84,1.22,.58,2.88-.6,3.78-.28,.21-.6,.36-.95,.44-1.02,.22-2.08-.22-2.65-1.09-.74-1.08-.63-2.53,.27-3.49l.33-.3c1.13-.82,2.7-.57,3.52,.55,.03,.04,.05,.07,.08,.11Z"/>
  <path class="cls-2" d="M9.04,10.73c2.42,0,4.39-1.94,4.41-4.36,0,2.43,1.96,4.4,4.39,4.41,0,0,0,0,.01,0"/>
  <path class="cls-2" d="M9.04,10.73c2.43,0,4.4,1.96,4.41,4.39,0,0,0,0,0,.01,0-2.43,1.97-4.4,4.4-4.4h0"/>
  <path class="cls-2" d="M48.8,52.7c2.42,0,4.39-1.94,4.41-4.36,0,2.43,1.96,4.4,4.39,4.41,0,0,0,0,.01,0"/>
  <path class="cls-2" d="M48.8,52.7c2.43,0,4.4,1.96,4.41,4.39,0,0,0,0,0,.01,0-2.43,1.97-4.4,4.4-4.4h0"/>
  <line class="cls-2" x1="22.12" y1="7.88" x2="22.12" y2="7.88"/>
  <line class="cls-2" x1="7.12" y1="16.88" x2="7.12" y2="16.88"/>
  <line class="cls-2" x1="56.12" y1="43.88" x2="56.12" y2="43.88"/>
  <line class="cls-2" x1="41.12" y1="55.88" x2="41.12" y2="55.88"/>
  <line class="cls-2" x1="7.12" y1="56.88" x2="7.12" y2="56.88"/>
  <line class="cls-2" x1="55.12" y1="7.88" x2="55.12" y2="7.88"/>
</svg>