<?xml version="1.0" encoding="UTF-8"?>
<svg id="Witchcraft-Icons" xmlns="http://www.w3.org/2000/svg" viewBox="0 0 64 64">
  <defs>
    <style>
      .cls-1 {
        fill: #f3e9ff;
      }

      .cls-2 {
        fill: none;
        stroke: #654a99;
        stroke-linecap: round;
        stroke-linejoin: round;
        stroke-width: 2px;
      }
    </style>
  </defs>
  <circle class="cls-1" cx="44" cy="17" r="12.86"/>
  <g>
    <path class="cls-2" d="M50.93,42.92c-3.59,12.18-19.63,17.71-29.96,10.36,1.77-.2,3.69-.58,5.64-1.24,9.36,3.5,20.36-3.14,21.52-13.17,1.02,1.15,1.96,2.5,2.79,4.05Z"/>
    <path class="cls-2" d="M21.92,49.46c-1.75,.29-3.43,.37-4.92,.34-8.85-9.37-5.08-26.25,6.48-31.17-.76,1.65-1.43,3.48-1.86,5.46h0c-7.91,6.09-7.74,19.51,.3,25.37Z"/>
    <path class="cls-2" d="M40.9,18.8c-1.6-.81-3.33-1.4-5.15-1.75-1-1.5-2.23-3.01-3.75-4.53-3.11,2.77-7.82,11.28-7.27,16.88-1.06,.29-2.55,.76-3.62,1.07-.15-2.13,.07-4.39,.51-6.38h0c1.39-7.3,7.24-14.05,10.41-16.7,3.46,3.27,7.18,7.38,8.86,11.41Z"/>
    <path class="cls-2" d="M39.23,29.4c.16-2.46-.08-4.95-1.11-7.71"/>
    <path class="cls-2" d="M42.6,24.39c.24,1.34,.35,2.58,.34,3.95-.01,.76-.04,1.4-.13,2.13"/>
    <path class="cls-2" d="M51.95,36.66c0,.34,0,.68-.03,1.01-1.21-1.58-2.52-2.9-3.91-3.99-1.59-9.78-12.62-15.93-21.74-12.28,.66-1.66,1.45-3.14,2.24-4.38,11.82-2.28,23.58,7.27,23.43,19.65Z"/>
    <path class="cls-2" d="M31.66,49.62c-6.96,5.03-19.27,4.35-25.47,1.81,1.14-4.8,3.24-10.59,5.88-13.75,.09,1.83,.43,3.59,.99,5.25-.93,1.73-1.74,3.71-2.38,6.01,3.49,1.31,13.95,1.24,18.28-1.99h0c.12,.12,.22,.23,.34,.32"/>
    <path class="cls-2" d="M47,49.79c3.7-.08,6.32-.85,6.32-.85-1.94-7.58-7.16-14.06-14.65-15.91h0c-.24-.07-.51-.13-.77-.18-.29-.08-.57-.12-.88-.18-5.09-.93-10.49-.57-15.22,1.67"/>
    <path class="cls-2" d="M16.1,33.57c5.23-4.14,11.71-5.37,18.21-4.93,.75,.06,1.49,.15,2.23,.25h0c.08,.01,.16,.03,.24,.04,11.62,1.43,18.76,11.13,21.03,22.51-3.53,1.12-8.54,2.57-14.79,1.85"/>
    <path class="cls-2" d="M22.07,34.21c-2.06,1.01-4.05,2.44-5.84,4.46"/>
    <path class="cls-2" d="M35.02,46.95h0c2.3,1.36,4.74,2.12,7.04,2.51-1.39,1.11-2.97,1.98-4.69,2.58-2.85-.96-5.76-2.6-8.07-4.77-3.81-3.79-5.9-7.41-7.51-12.92,1.11-.54,2.23-.95,3.34-1.26,.7,3.65,3.4,8.36,6.36,11.2,.16,.17,.33,.34,.5,.51,0,0,0,0,.03-.03,.96,.87,1.96,1.58,2.98,2.18"/>
    <path class="cls-2" d="M32.03,44.76s-.02,0-.03-.02c.15-.14,.32-.29,.47-.44,0,0,0,0,0-.02,1.28-1.39,4.77-5.59,6.19-11.25,1.2,.31,2.4,.78,3.53,1.31-1.64,5.72-4.21,9.76-7.17,12.6h-.02"/>
  </g>
</svg>