<?xml version="1.0" encoding="UTF-8"?>
<svg id="Witchcraft-Icons" xmlns="http://www.w3.org/2000/svg" viewBox="0 0 64 64">
  <defs>
    <style>
      .cls-1 {
        fill: #f3e9ff;
      }

      .cls-2 {
        fill: none;
        stroke: #654a99;
        stroke-linecap: round;
        stroke-linejoin: round;
        stroke-width: 2px;
      }
    </style>
  </defs>
  <circle class="cls-1" cx="22.54" cy="39.6" r="13.5"/>
  <g>
    <path class="cls-2" d="M49.56,33.58c2.42,0,4.39-1.94,4.41-4.36,0,2.43,1.96,4.4,4.39,4.41,0,0,0,0,.01,0"/>
    <path class="cls-2" d="M49.56,33.58c2.43,0,4.4,1.96,4.41,4.39,0,0,0,0,0,.01,0-2.43,1.97-4.4,4.4-4.4h0"/>
  </g>
  <g>
    <path class="cls-2" d="M7.22,12.95c2.42,0,4.39-1.94,4.41-4.36,0,2.43,1.96,4.4,4.39,4.41,0,0,0,0,.01,0"/>
    <path class="cls-2" d="M7.22,12.95c2.43,0,4.4,1.96,4.41,4.39,0,0,0,0,0,.01,0-2.43,1.97-4.4,4.4-4.4h0"/>
  </g>
  <line class="cls-2" x1="17.01" y1="20.59" x2="17.01" y2="20.59"/>
  <line class="cls-2" x1="14.01" y1="47.59" x2="14.01" y2="47.59"/>
  <line class="cls-2" x1="49.43" y1="7.52" x2="49.43" y2="7.52"/>
  <line class="cls-2" x1="7.88" y1="38.9" x2="7.88" y2="38.9"/>
  <line class="cls-2" x1="55.62" y1="16.28" x2="55.62" y2="16.28"/>
  <line class="cls-2" x1="50.62" y1="51.28" x2="50.62" y2="51.28"/>
  <path class="cls-2" d="M28.65,29.07l.06-19.05c0-1.56,1.28-2.83,2.84-2.82s2.83,1.28,2.82,2.84h0l-.06,19.05"/>
  <path class="cls-2" d="M34.31,29.09l.05-17c0-1.56,1.28-2.83,2.84-2.82,1.56,0,2.83,1.28,2.82,2.84h0l-.05,17"/>
  <path class="cls-2" d="M40.73,51.1c3.02-2.44,4.83-6.13,4.85-10.09l.07-23.98c.04-1.49-1.05-2.78-2.53-2.99-1.55-.17-2.95,.96-3.11,2.51-.01,.1-.02,.19-.02,.29l-.04,12.26"/>
  <path class="cls-2" d="M28.65,29.07l.04-14.36c.04-1.49-1.05-2.78-2.53-2.99-1.55-.17-2.95,.96-3.11,2.51-.01,.1-.02,.19-.02,.29l-.06,19.82c0,.16-.13,.28-.28,.28-.09,0-.17-.04-.23-.12l-4.52-6.14-1.25-1.7c-.97-1.22-2.75-1.42-3.97-.45-1.11,.89-1.39,2.46-.65,3.68l9.2,17.55c.9,1.56,2.07,2.86,3.41,3.89"/>
  <circle class="cls-2" cx="32.54" cy="40.68" r="2.91"/>
  <circle class="cls-2" cx="32.54" cy="40.68" r="6.14"/>
  <path class="cls-2" d="M21.83,40.68s4.59,6.12,10.71,6.12,10.71-6.12,10.71-6.12"/>
  <path class="cls-2" d="M21.83,40.68s4.59-6.12,10.71-6.12,10.71,6.12,10.71,6.12"/>
  <path class="cls-2" d="M42.14,58.8v-5.7c0-.94-.76-1.7-1.7-1.7h-15.45c-.94,0-1.7,.76-1.7,1.7v5.7h18.85Z"/>
</svg>