<?xml version="1.0" encoding="UTF-8"?>
<svg id="Witchcraft-Icons" xmlns="http://www.w3.org/2000/svg" viewBox="0 0 64 64">
  <defs>
    <style>
      .cls-1 {
        fill: #f3e9ff;
      }

      .cls-2 {
        fill: none;
        stroke: #654a99;
        stroke-linecap: round;
        stroke-linejoin: round;
        stroke-width: 2px;
      }
    </style>
  </defs>
  <circle class="cls-1" cx="16.54" cy="38.2" r="13.5"/>
  <path class="cls-2" d="M41.98,20.18c-.33-7.4-6.45-12.58-6.45-12.58l-6.4-1.05c-1.31-.21-2.66-.05-3.88,.48l-2.62,1.13c-1.07,.46-2,1.19-2.69,2.1h0c-1.2,1.59-1.6,3.61-1.09,5.52l.76,2.81s2.37-2.84,2.59-4.22,2.53-2.52,2.53-2.52"/>
  <path class="cls-2" d="M23.39,11.16s3.83,1.41,2.3,3.74-2.4,4.09-2.3,6.33"/>
  <path class="cls-2" d="M21.64,21.98s3.38-1.8,10.55-1.8,10.72,.9,10.72,.9l.39,1.47c.4,1.54,1.5,2.82,2.99,3.48,3.32,1.47,9.16,4.24,10.77,6.1-7.76-2.54-14.54-3.38-24.92-3.38s-25.47,5.99-25.47,5.99c0,0,3.61-4.13,9.29-6.2s5.68-6.56,5.68-6.56Z"/>
  <path class="cls-2" d="M41.98,29.1s1.22,6.05,.33,10.56c-1.15,5.84-5.99,9.15-8.55,10.53-1,.54-2.22,.54-3.22,0-2.56-1.38-7.4-4.69-8.55-10.53-.89-4.52,.64-9.74,.64-9.74"/>
  <path class="cls-2" d="M16.52,31.45s-1.54,6.99-1.33,8.86,.1,3.79-2.08,6.31c-1.65,1.91,1,6.91-1.4,10.13"/>
  <path class="cls-2" d="M28.87,49.2s.97,5.03-1.32,5.77-4.16,1.77-4.16,1.77"/>
  <path class="cls-2" d="M35.41,49.2s-1,5.03,1.3,5.77,4.16,1.77,4.16,1.77"/>
  <path class="cls-2" d="M47.17,29.72s1.42,4.82,1.42,8,5.55,5.57,4.37,10.62c-1.11,4.73-1.04,8.52-1.04,8.52"/>
  <path class="cls-2" d="M29.48,43.83s4.26,2.07,6.72-.54"/>
  <g>
    <path class="cls-2" d="M35.41,37.72s2.09-1.94,3.85-1.43"/>
    <line class="cls-2" x1="37.1" y1="37.72" x2="37.1" y2="37.72"/>
    <path class="cls-2" d="M34.18,35.06s3.44-3.33,5.92-2.22"/>
  </g>
  <g>
    <path class="cls-2" d="M29.08,37.72s-2.09-1.94-3.85-1.43"/>
    <line class="cls-2" x1="27.38" y1="37.72" x2="27.38" y2="37.72"/>
    <path class="cls-2" d="M30.3,35.06s-3.44-3.33-5.92-2.22"/>
  </g>
  <path class="cls-2" d="M48.58,37.53c6.6-2.27,8.48-5.39,8.48-5.39"/>
  <path class="cls-2" d="M6.67,34.74s2.07,2.02,8.62,3.52"/>
  <line class="cls-2" x1="58.17" y1="8.86" x2="58.17" y2="8.86"/>
  <line class="cls-2" x1="50.17" y1="12.86" x2="50.17" y2="12.86"/>
  <g>
    <path class="cls-2" d="M52.24,20.72h1.16"/>
    <path class="cls-2" d="M57.11,20.72h1.15"/>
    <path class="cls-2" d="M55.25,17.71v1.16"/>
    <path class="cls-2" d="M55.25,22.57v1.16"/>
  </g>
  <line class="cls-2" x1="12.53" y1="5.46" x2="12.53" y2="5.46"/>
  <line class="cls-2" x1="6.53" y1="22.46" x2="6.53" y2="22.46"/>
  <line class="cls-2" x1="44.27" y1="7.06" x2="44.27" y2="7.06"/>
  <g>
    <path class="cls-2" d="M6.24,14.72h1.16"/>
    <path class="cls-2" d="M11.11,14.72h1.15"/>
    <path class="cls-2" d="M9.25,11.71v1.16"/>
    <path class="cls-2" d="M9.25,16.57v1.16"/>
  </g>
</svg>